<?xml version="1.0" encoding="UTF-8"?>
<svg width="1200pt" height="1200pt" version="1.1" viewBox="0 0 1200 1200" xmlns="http://www.w3.org/2000/svg">
 <path transform="matrix(11.321 0 0 11.321 -1250.9 -735.85)" d="m147.23 88v80l-32.083-20v-80zm0 0" fill="none" stroke="#ed8f3f" stroke-linecap="round" stroke-linejoin="round" stroke-width="4"/>
 <path transform="matrix(11.321 0 0 11.321 -1250.9 -735.85)" d="m179.31 148v-80l-32.083 20v80zm0 0" fill="none" stroke="#ed8f3f" stroke-linecap="round" stroke-linejoin="round" stroke-width="4"/>
 <path transform="matrix(11.321 0 0 11.321 -1250.9 -735.85)" d="m211.39 88v80l-32.083-20v-80zm0 0" fill="none" stroke="#ed8f3f" stroke-linecap="round" stroke-linejoin="round" stroke-width="4"/>
 <path transform="matrix(11.321 0 0 11.321 -1250.9 -735.85)" d="m127.91 108.71s-3.8639-11.229 3.2628-12.011c7.1267-0.7812 8.9023 10.466 21.893 9.2519 12.99-1.2135 9.0807-15.593 23.961-13.536 14.88 2.0572 28.562 20.798 28.562 20.798" fill="none" stroke="#ed8f3f" stroke-dasharray="2 2" stroke-linecap="round" stroke-linejoin="round"/>
 <path transform="matrix(11.321 0 0 11.321 -1250.9 -735.85)" d="m205.57 151.86s-1.5476-18.801-13.133-20.638c-11.586-1.8371-12.135 10.646-27.762 14.153-15.627 3.5081-18.467 6.704-27.398-1.7705-8.9313-8.4745-13.695-19-4.1275-28.142 9.5676-9.1425 28.65 5.1209 37.899-4.1279 9.2484-9.2484-5.2534-28.518-5.2534-28.518" fill="none" stroke="#ed8f3f" stroke-dasharray="2 2" stroke-linecap="round" stroke-linejoin="round"/>
 <path transform="matrix(11.321 0 0 11.321 -1250.9 -735.85)" d="m124.82 80.383s-8.5946 26.703-4.427 43.34c4.1675 16.637 3.6161 16.022 19.137 15.384 15.521-0.63766 16.934-3.1638 35.647-17.636 18.713-14.472 30.404-33.447 30.404-33.447" fill="none" stroke="#ed8f3f" stroke-dasharray="2 2" stroke-linecap="round" stroke-linejoin="round"/>
 <path transform="matrix(11.321 0 0 11.321 -1250.9 -735.85)" d="m153.82 121.29 12.508 30.573" fill="none" stroke="#ed8f3f" stroke-dasharray="2 2" stroke-linecap="round" stroke-linejoin="round"/>
 <path d="m1022.2 683.89 26.688 26.688 26.691-26.688 26.672 26.672-26.691 26.688 26.691 26.688-26.672 26.676-26.691-26.691-26.688 26.691-26.672-26.676 26.688-26.688-26.688-26.688z" fill="#ed8f3f"/>
 <path d="m537.93 286.31 26.688 26.688 26.688-26.688 26.672 26.672-26.688 26.691 26.688 26.688-26.672 26.672-26.688-26.688-26.688 26.688-26.676-26.672 26.691-26.688-26.691-26.691z" fill="#ed8f3f"/>
 <path d="m270.82 719.6 26.688 26.691 26.691-26.691 26.672 26.672-26.691 26.691 26.691 26.688-26.672 26.672-26.691-26.688-26.688 26.688-26.672-26.672 26.688-26.688-26.688-26.691z" fill="#ed8f3f"/>
 <path d="m928.43 286.31 26.691 26.688 26.688-26.688 26.672 26.672-26.688 26.691 26.688 26.688-26.672 26.672-26.688-26.688-26.691 26.688-26.672-26.672 26.688-26.688-26.688-26.691z" fill="#ed8f3f"/>
</svg>
