<?xml version="1.0" encoding="UTF-8"?>
<svg width="1200pt" height="1200pt" version="1.1" viewBox="0 0 1200 1200" xmlns="http://www.w3.org/2000/svg">
 <path d="m516.98 656.86-80.672 46.594c-3.8438 2.625-8.4844 4.1719-13.5 4.1719s-9.6562-1.5-13.5-4.125l-131.29-75.844-43.547 25.172 188.34 108.75 94.172-54.375zm284.16-43.172v217.55l188.21-108.7v-217.45l-188.21 108.66zm-10.125 278.63c-3.8906 2.8125-8.7188 4.4062-13.875 4.4062-5.3438 0-10.266-1.7344-14.25-4.6875-26.391-15.797-53.062-31.359-79.875-46.828v80.25c0 9.5156-5.5312 17.719-13.547 21.609l-232.78 134.34c-3.8906 2.8125-8.7188 4.4062-13.875 4.4062-5.2969 0-10.219-1.7344-14.203-4.6406-76.875-46.031-156.28-90.188-234-135-7.6406-4.4062-11.953-12.469-11.953-20.719l-0.09375-272.72c0-9.5156 5.5312-17.719 13.547-21.609l54-31.172-55.453-32.016c-7.6875-4.4062-11.953-12.422-12-20.719l-0.09375-272.72c0-9.7031 5.7656-18.094 14.109-21.891l234.14-135.24c7.7344-4.4531 16.922-4.125 24.094 0.046875l236.02 136.31c7.6875 4.4062 11.953 12.422 12 20.719l0.09375 79.453 82.219-47.438c7.6406-4.3594 16.688-4.0781 23.812 0 77.578 46.547 157.82 91.125 236.29 136.4 7.6406 4.4531 11.953 12.469 11.953 20.719l0.09375 272.72c0 9.5156-5.5312 17.719-13.547 21.609l-232.78 134.34zm-37.875-61.078v-217.55l-188.21-108.66v217.5l104.34 60.281c1.1719 0.5625 2.2969 1.2188 3.375 1.9688zm-164.34-367.64 188.34 108.75 188.34-108.75-82.266-47.531-106.12-61.266-104.48 60.375c-1.0312 0.70312-2.1562 1.3594-3.2812 1.9219l-80.578 46.547zm-61.219 292.6-80.766 46.594v217.55l188.21-108.7v-93.984c-35.484-20.25-70.969-40.359-106.12-60.656l-1.3594-0.84375zm107.48-374.58v-65.719l-188.21 108.66v217.5l70.125-40.5-0.046875-138c0-9.5156 5.5312-17.719 13.547-21.609zm-236.26 421.18-188.21-108.66v217.5l188.21 108.7zm-109.88-224.16c0.75 0.375 1.5 0.84375 2.2031 1.3125l107.62 62.109v-217.5l-188.21-108.66v217.55l78.328 45.188zm322.26-304.18-188.39-108.75-188.39 108.75 188.39 108.75z" fill="#ed8f3f"/>
</svg>
