<?xml version="1.0" encoding="UTF-8"?>
<svg width="1200pt" height="1200pt" version="1.1" viewBox="0 0 1200 1200" xmlns="http://www.w3.org/2000/svg">
 <path d="m574.91 643.27c-12.504 0-22.641 10.137-22.641 22.641v35.742c0 12.504 10.137 22.641 22.641 22.641s22.641-10.137 22.641-22.641v-35.742c0-12.504-10.137-22.641-22.641-22.641z" fill="#ed8f3f"/>
 <path d="m679.2 574.48c-12.504 0-22.641 10.137-22.641 22.641v105.4c0 12.504 10.137 22.641 22.641 22.641 12.504 0 22.641-10.137 22.641-22.641v-105.4c0-12.504-10.137-22.641-22.641-22.641z" fill="#ed8f3f"/>
 <path d="m783.47 606.8c-12.504 0-22.641 10.137-22.641 22.641v74.812c0 12.504 10.137 22.641 22.641 22.641s22.641-10.137 22.641-22.641v-74.812c0.003906-12.504-10.137-22.641-22.641-22.641z" fill="#ed8f3f"/>
 <path d="m887.75 535.46c-12.504 0-22.641 10.137-22.641 22.641v142.68c0 12.504 10.137 22.641 22.641 22.641s22.641-10.137 22.641-22.641v-142.68c0-12.504-10.137-22.641-22.641-22.641z" fill="#ed8f3f"/>
 <path d="m537.98 626.73c4.7539 0 9.5508-1.4922 13.633-4.5781l126.02-95.297c1.3477-1.0078 3.4258-1.0391 4.7969-0.12109l56.348 37.844c17.855 12.008 42.012 10.922 58.805-2.7188l106.68-87.852-2.3398 13.848c-2.0898 12.328 6.2148 24.023 18.539 26.102 12.125 2.0898 23.992-6.0664 26.102-18.539 2.7617-16.523 11.344-66.367 12.438-74.441 1.8672-13.719-9.0312-24.781-20.957-25.484-7.5195-0.46875-55.305-1.6523-75.398-2.25-12.734-0.91797-22.918 9.5078-23.262 22-0.35547 12.504 9.4961 22.918 22 23.262l14.273 0.39844-106.74 87.898c-1.3281 1.0742-3.4609 1.1484-4.8867 0.1875l-56.359-37.855c-17.512-11.742-40.574-11.09-57.355 1.6016l-126.01 95.285c-9.9727 7.5508-11.949 21.746-4.4102 31.719 4.4453 5.8984 11.223 8.9922 18.078 8.9922z" fill="#ed8f3f"/>
 <path d="m363.66 331.23c-0.007812 0-0.015625-0.003907-0.027344-0.003907h-0.039062-0.039063c-0.007812 0-0.015625 0.003907-0.027343 0.003907-71.539 0.058593-129.71 58.258-129.71 129.81 0 71.484 58.23 129.65 129.81 129.65 71.484 0 129.65-58.164 129.65-129.65 0-0.17969-0.097657-0.33203-0.10547-0.51172-0.27344-71.312-58.246-129.24-129.51-129.3zm81.188 107.17h-58.57v-58.766c28.328 7.9453 50.684 30.367 58.57 58.766zm-81.215 107c-46.609 0-84.531-37.844-84.531-84.363 0-38.742 26.195-71.469 61.812-81.418v81.418c0 12.504 10.137 22.641 22.641 22.641h81.359c-9.918 35.566-42.598 61.723-81.281 61.723z" fill="#ed8f3f"/>
 <path d="m453.27 648.26h-180.89c-12.504 0-22.641 10.137-22.641 22.641s10.137 22.641 22.641 22.641h180.89c12.504 0 22.641-10.137 22.641-22.641 0.003906-12.504-10.137-22.641-22.641-22.641z" fill="#ed8f3f"/>
 <path d="m453.27 726.05h-180.89c-12.504 0-22.641 10.137-22.641 22.641s10.137 22.641 22.641 22.641h180.89c12.504 0 22.641-10.137 22.641-22.641 0.003906-12.5-10.137-22.641-22.641-22.641z" fill="#ed8f3f"/>
 <path d="m55.074 1121.9c0 12.504 10.137 22.641 22.641 22.641l1044.6 0.003906c12.504 0 22.641-10.137 22.641-22.641s-10.137-22.641-22.641-22.641l-226.94-0.003906c13.016-26.594 9.9023-60.012-11.617-84.121l-121.2-135.97h192.63c59.898 0 108.63-48.73 108.63-108.63l0.003907-483.5c34.012-10.457 58.969-41.797 58.969-79.188 0-45.879-37.336-83.215-83.215-83.215h-413.1v-46.508c0-12.504-10.137-22.641-22.641-22.641s-22.641 10.137-22.641 22.641v46.512l-406.86-0.003906c-45.891 0-83.227 37.336-83.227 83.215 0 35.105 21.93 65.055 52.758 77.254v485.43c0 59.898 48.73 108.63 108.63 108.63h192.66l-121.18 135.96c-21.27 23.797-24.84 57.148-11.719 84.133h-234.51c-12.504 0-22.641 10.137-22.641 22.641zm794.86-76.613c11.379 12.723 10.297 32.242-2.6094 43.656-0.023438 0.023437-0.054688 0.042968-0.078125 0.078124-12.66 11.281-32.254 10.391-43.715-2.4766-187.86-210.65-182.84-205.44-185.13-207.38h83.457zm-675.63-875.37h865.24c20.918 0 37.93 17.016 37.93 37.93 0 20.578-16.496 37.297-36.945 37.832h-867.21c-20.453-0.53516-36.957-17.254-36.957-37.832 0-20.918 17.023-37.93 37.941-37.93zm14.816 600.62v-479.47h829.39v479.47c0 34.934-28.414 63.348-63.348 63.348h-702.7c-34.938 0-63.348-28.41-63.348-63.348zm168.61 274.74 148.07-166.11h83.246c-2.2734 1.9219 8.5352-9.7891-185.13 207.38-11.102 12.469-31.418 13.5-43.715 2.4648-12.734-11.344-13.926-30.918-2.4648-43.734zm245.99-114.84 150.48 168.83h-300.96z" fill="#ed8f3f"/>
</svg>
