<?xml version="1.0" encoding="UTF-8"?>
<svg width="1200pt" height="1200pt" version="1.1" viewBox="0 0 1200 1200" xmlns="http://www.w3.org/2000/svg">
 <path d="m890.44 352.22c3.5625 3.5625 8.1562 5.3438 12.844 5.3438 4.6406 0 9.2812-1.7812 12.844-5.3438l132.47-132.47c7.0781-7.0781 7.0781-18.562 0-25.641s-18.562-7.0781-25.641 0l-119.62 119.62-72.469-72.469c-7.0781-7.0781-18.562-7.0781-25.641 0s-7.0781 18.562 0 25.641z" fill="#ed8f3f"/>
 <path d="m1120.3 934.03-181.6-141c-0.51563-0.46875-1.0312-0.84375-1.5938-1.2188l-83.625-64.969c42.75-64.688 67.828-139.5 72.469-218.06h0.84375c129.94 0 235.64-105.7 235.64-235.64 0.046875-129.94-105.66-235.64-235.6-235.64-73.125 0-138.61 33.469-181.87 85.969-82.359-60.469-183.19-90.656-286.08-85.312-109.88 5.7188-213.28 51.75-291.19 129.61-83.953 83.953-130.22 195.66-130.22 314.39 0 118.78 46.266 230.44 130.22 314.39 83.953 84 195.61 130.26 314.39 130.26 88.312 0 172.69-25.594 244.69-73.219l65.812 84.703c0.09375 0.14062 0.23438 0.28125 0.375 0.46875l141.1 181.6c19.359 24.938 48.469 39.797 81.938 41.906 2.7188 0.1875 5.4375 0.28125 8.1562 0.28125 36.094 0 72.188-14.812 97.781-40.453 27.609-27.609 42.656-67.266 40.219-106.08-2.0156-33.516-16.922-62.625-41.859-81.984zm-193.45-860.26c109.97 0 199.4 89.438 199.4 199.4 0 109.97-89.438 199.4-199.4 199.4-109.97 0-199.4-89.438-199.4-199.4 0-2.1562 0.046875-4.2188 0.09375-6.375v-0.1875c3.5156-106.97 91.547-192.84 199.31-192.84zm-235.74 617.39c-115.22 115.22-302.72 115.22-417.94 0-115.22-115.22-115.22-302.72 0-417.94 115.22-115.22 302.72-115.22 417.94 0l0.09375 0.09375c0.046874 72.703 33.188 137.81 85.172 181.03 8.2969 88.078-22.5 174.05-85.266 236.81zm-497.72 79.781c-77.109-77.109-119.62-179.68-119.62-288.74 0-109.12 42.469-211.69 119.62-288.84 143.53-143.53 368.9-159.66 530.72-40.266-13.547 22.781-23.391 48.094-28.594 75-59.672-50.297-134.44-77.719-213.37-77.719-88.594 0-171.94 34.5-234.61 97.172-62.676 62.672-97.172 145.97-97.172 234.61 0 88.641 34.5 171.94 97.172 234.61 62.672 62.672 145.97 97.172 234.61 97.172 88.594 0 171.94-34.5 234.61-97.172 63.562-63.562 97.969-148.31 97.219-236.86 23.203 12.75 48.75 21.656 75.844 25.922-5.7188 100.12-47.531 193.69-118.92 265.08-77.109 77.109-179.68 119.62-288.74 119.62-109.03 0.046875-211.64-42.422-288.74-119.58zm603.14 25.641c12.844-12.844 24.75-26.25 35.812-40.312l67.5 52.406-91.172 91.172-52.406-67.5c13.969-11.016 27.469-22.922 40.266-35.766zm299.86 299.81c-20.344 20.344-49.5 31.406-78.094 29.625-22.969-1.4062-42.703-11.344-55.594-27.938l-131.63-169.4 97.594-97.594 169.4 131.58c16.594 12.891 26.531 32.625 27.938 55.594 1.7812 28.547-9.2812 57.797-29.625 78.141z" fill="#ed8f3f"/>
 <path d="m482.16 263.29c-120.66 0-218.86 98.156-218.86 218.86 0 9.9844 8.1094 18.141 18.141 18.141 9.9844 0 18.141-8.1094 18.141-18.141 0-100.69 81.938-182.63 182.63-182.63 9.9844 0 18.141-8.1094 18.141-18.141-0.09375-9.9844-8.2031-18.094-18.188-18.094z" fill="#ed8f3f"/>
</svg>
